<svg xmlns="http://www.w3.org/2000/svg" width="960" height="644" viewBox="0 0 960 644" role="img" aria-labelledby="chart-title chart-desc" font-family="Arial, Helvetica Neue, PingFang SC, Microsoft YaHei, sans-serif">
<title id="chart-title">Which LLM apps do you use most?</title>
<desc id="chart-desc">ChatGPT: 79; DeepSeek: 38; Doubao (豆包): 22; Claude: 10; Gemini: 10; Qwen (千问): 5; Kimi: 5; Zhipu Qingyan (智谱清言): 2; Tencent Yuanbao (腾讯元宝): 1; Codex (Other): 1; Minimax (Other): 1</desc>
<rect width="960" height="644" fill="#fbfbf9"/>
<text x="32" y="44" font-size="26" font-weight="700" fill="#202b38">Which LLM apps do you use most?</text>
<text x="32" y="72" font-size="17" fill="#566471">Lecture 01 survey · 92 responses · counted September 16, 2026</text>
<line x1="250.0" y1="88" x2="250.0" y2="580" stroke="#dce2e7" stroke-width="1"/>
<text x="250.0" y="604" font-size="15" fill="#566471" text-anchor="middle">0</text>
<line x1="289.2" y1="88" x2="289.2" y2="580" stroke="#dce2e7" stroke-width="1"/>
<text x="289.2" y="604" font-size="15" fill="#566471" text-anchor="middle">5</text>
<line x1="328.5" y1="88" x2="328.5" y2="580" stroke="#dce2e7" stroke-width="1"/>
<text x="328.5" y="604" font-size="15" fill="#566471" text-anchor="middle">10</text>
<line x1="367.7" y1="88" x2="367.7" y2="580" stroke="#dce2e7" stroke-width="1"/>
<text x="367.7" y="604" font-size="15" fill="#566471" text-anchor="middle">15</text>
<line x1="407.0" y1="88" x2="407.0" y2="580" stroke="#dce2e7" stroke-width="1"/>
<text x="407.0" y="604" font-size="15" fill="#566471" text-anchor="middle">20</text>
<line x1="446.2" y1="88" x2="446.2" y2="580" stroke="#dce2e7" stroke-width="1"/>
<text x="446.2" y="604" font-size="15" fill="#566471" text-anchor="middle">25</text>
<line x1="485.4" y1="88" x2="485.4" y2="580" stroke="#dce2e7" stroke-width="1"/>
<text x="485.4" y="604" font-size="15" fill="#566471" text-anchor="middle">30</text>
<line x1="524.7" y1="88" x2="524.7" y2="580" stroke="#dce2e7" stroke-width="1"/>
<text x="524.7" y="604" font-size="15" fill="#566471" text-anchor="middle">35</text>
<line x1="563.9" y1="88" x2="563.9" y2="580" stroke="#dce2e7" stroke-width="1"/>
<text x="563.9" y="604" font-size="15" fill="#566471" text-anchor="middle">40</text>
<line x1="603.2" y1="88" x2="603.2" y2="580" stroke="#dce2e7" stroke-width="1"/>
<text x="603.2" y="604" font-size="15" fill="#566471" text-anchor="middle">45</text>
<line x1="642.4" y1="88" x2="642.4" y2="580" stroke="#dce2e7" stroke-width="1"/>
<text x="642.4" y="604" font-size="15" fill="#566471" text-anchor="middle">50</text>
<line x1="681.6" y1="88" x2="681.6" y2="580" stroke="#dce2e7" stroke-width="1"/>
<text x="681.6" y="604" font-size="15" fill="#566471" text-anchor="middle">55</text>
<line x1="720.9" y1="88" x2="720.9" y2="580" stroke="#dce2e7" stroke-width="1"/>
<text x="720.9" y="604" font-size="15" fill="#566471" text-anchor="middle">60</text>
<line x1="760.1" y1="88" x2="760.1" y2="580" stroke="#dce2e7" stroke-width="1"/>
<text x="760.1" y="604" font-size="15" fill="#566471" text-anchor="middle">65</text>
<line x1="799.4" y1="88" x2="799.4" y2="580" stroke="#dce2e7" stroke-width="1"/>
<text x="799.4" y="604" font-size="15" fill="#566471" text-anchor="middle">70</text>
<line x1="838.6" y1="88" x2="838.6" y2="580" stroke="#dce2e7" stroke-width="1"/>
<text x="838.6" y="604" font-size="15" fill="#566471" text-anchor="middle">75</text>
<text x="236" y="116.0" font-size="17" fill="#202b38" text-anchor="end">ChatGPT</text>
<rect x="250" y="96" width="620.0" height="28" rx="4" fill="#20578c"/>
<text x="880.0" y="116.0" font-size="16" fill="#202b38">79</text>
<text x="236" y="160.0" font-size="17" fill="#202b38" text-anchor="end">DeepSeek</text>
<rect x="250" y="140" width="298.2" height="28" rx="4" fill="#20578c"/>
<text x="558.2" y="160.0" font-size="16" fill="#202b38">38</text>
<text x="236" y="204.0" font-size="17" fill="#202b38" text-anchor="end">Doubao (豆包)</text>
<rect x="250" y="184" width="172.7" height="28" rx="4" fill="#20578c"/>
<text x="432.7" y="204.0" font-size="16" fill="#202b38">22</text>
<text x="236" y="248.0" font-size="17" fill="#202b38" text-anchor="end">Claude</text>
<rect x="250" y="228" width="78.5" height="28" rx="4" fill="#20578c"/>
<text x="338.5" y="248.0" font-size="16" fill="#202b38">10</text>
<text x="236" y="292.0" font-size="17" fill="#202b38" text-anchor="end">Gemini</text>
<rect x="250" y="272" width="78.5" height="28" rx="4" fill="#20578c"/>
<text x="338.5" y="292.0" font-size="16" fill="#202b38">10</text>
<text x="236" y="336.0" font-size="17" fill="#202b38" text-anchor="end">Qwen (千问)</text>
<rect x="250" y="316" width="39.2" height="28" rx="4" fill="#20578c"/>
<text x="299.2" y="336.0" font-size="16" fill="#202b38">5</text>
<text x="236" y="380.0" font-size="17" fill="#202b38" text-anchor="end">Kimi</text>
<rect x="250" y="360" width="39.2" height="28" rx="4" fill="#20578c"/>
<text x="299.2" y="380.0" font-size="16" fill="#202b38">5</text>
<text x="236" y="424.0" font-size="17" fill="#202b38" text-anchor="end">Zhipu Qingyan (智谱清言)</text>
<rect x="250" y="404" width="15.7" height="28" rx="4" fill="#20578c"/>
<text x="275.7" y="424.0" font-size="16" fill="#202b38">2</text>
<text x="236" y="468.0" font-size="17" fill="#202b38" text-anchor="end">Tencent Yuanbao (腾讯元宝)</text>
<rect x="250" y="448" width="7.8" height="28" rx="4" fill="#20578c"/>
<text x="267.8" y="468.0" font-size="16" fill="#202b38">1</text>
<text x="236" y="512.0" font-size="17" fill="#202b38" text-anchor="end">Codex (Other)</text>
<rect x="250" y="492" width="7.8" height="28" rx="4" fill="#20578c"/>
<text x="267.8" y="512.0" font-size="16" fill="#202b38">1</text>
<text x="236" y="556.0" font-size="17" fill="#202b38" text-anchor="end">Minimax (Other)</text>
<rect x="250" y="536" width="7.8" height="28" rx="4" fill="#20578c"/>
<text x="267.8" y="556.0" font-size="16" fill="#202b38">1</text>
<text x="560.0" y="632" font-size="15" fill="#566471" text-anchor="middle">Students who selected the app (multiple selections allowed)</text>
</svg>
